<svg width="512" height="512" viewBox="0 0 512 512" fill="none" xmlns="http://www.w3.org/2000/svg">
<rect width="512" height="512" fill="white"/>
<path d="M358.552 73.3275C332.469 111.493 280.421 144.081 220.08 154.363V125.26H202.17H168.633C168.633 180.329 167.957 200.371 170 199.5C171.082 198.977 179.932 194.619 187.144 190.263C204.213 179.806 225.008 169.699 261.189 154.363C291.119 141.641 308.669 132.928 319.487 125.26C324.656 121.6 325.016 121.6 322.492 124.563C318.044 129.791 295.807 145.301 273.81 158.72C233.903 182.943 219.719 195.142 203.372 218.669C191.836 235.394 176.245 249.973 170 272C166.484 284.4 170.582 302.234 168.633 316.608C165.628 338.915 155.291 351.288 139.785 351.288C125.601 351.288 109.745 343.272 97.2444 325.67L78.6131 300.227C78.6131 300.227 68.9107 315.714 62.7465 325.67C56.5648 335.655 47 351.288 47 351.288L62.7465 373.246C67.3141 381.088 76.8101 392.067 85.9454 400.084C101.211 413.503 123.437 420.299 145.795 418.731C161.662 417.685 170.316 414.722 182.937 406.009C194.837 397.993 206.257 381.263 212.387 363.313C219.96 340.658 220.681 334.733 221.282 282.452L224.5 245.5L231 224C241.698 209.013 258.304 191.831 290.037 165.691C303.62 154.537 319.006 140.944 324.175 135.542C336.195 123.169 349.417 104.348 355.788 90.7545C360.235 81.1697 367.447 62 366.606 62C366.486 62 362.76 67.0538 358.552 73.3275Z" fill="#2A2466"/>
<path d="M290 220C298.284 220 305 213.284 305 205C305 196.716 298.284 190 290 190C281.716 190 275 196.716 275 205C275 213.284 281.716 220 290 220Z" fill="#2A2466"/>
<path d="M219 87C219 100.807 207.807 112 194 112C180.193 112 169 100.807 169 87C169 73.1929 180.193 62 194 62C207.807 62 219 73.1929 219 87Z" fill="#2A2466"/>
<path d="M277.04 329.44C277.04 336.08 274.32 341.88 268.88 346.84C263.44 351.72 256.96 354.36 249.44 354.76C249.36 356.12 249.28 357.16 249.2 357.88C249.2 358.52 249.2 359.08 249.2 359.56C249.2 363.24 249.8 365.84 251 367.36C252.28 368.88 254.56 369.64 257.84 369.64C261.6 369.64 265.04 368.8 268.16 367.12C271.36 365.36 275 362.16 279.08 357.52H283.16C278.52 365.04 273.48 370.64 268.04 374.32C262.6 377.92 256.64 379.72 250.16 379.72C244 379.72 239.32 378.12 236.12 374.92C233 371.72 231.44 366.96 231.44 360.64C231.44 356.08 232.16 351.24 233.6 346.12C235.04 341 236.96 336.44 239.36 332.44C242.32 327.64 245.84 324.04 249.92 321.64C254.08 319.16 258.72 317.92 263.84 317.92C268.24 317.92 271.52 318.88 273.68 320.8C275.92 322.64 277.04 325.52 277.04 329.44ZM264.8 324.28C262.08 324.28 259.32 326.72 256.52 331.6C253.8 336.4 251.76 342.2 250.4 349C255.04 348.68 259.08 346.56 262.52 342.64C266.04 338.64 267.8 334.16 267.8 329.2C267.8 327.52 267.56 326.28 267.08 325.48C266.6 324.68 265.84 324.28 264.8 324.28ZM308.215 366.16C308.215 364.72 308.375 362.92 308.695 360.76C309.095 358.6 309.855 355.16 310.975 350.44C312.095 345.88 312.815 342.6 313.135 340.6C313.455 338.6 313.615 336.92 313.615 335.56C313.615 333.56 313.215 332.04 312.415 331C311.695 329.96 310.615 329.44 309.175 329.44C307.255 329.44 305.375 330.6 303.535 332.92C301.775 335.16 300.615 337.52 300.055 340L291.775 379H274.495L291.895 297.4L309.655 295L303.175 325.24C305.175 323 307.335 321.32 309.655 320.2C311.975 319.08 314.495 318.52 317.215 318.52C321.455 318.52 324.735 319.68 327.055 322C329.375 324.32 330.535 327.68 330.535 332.08C330.535 333.92 330.295 336.12 329.815 338.68C329.415 341.16 328.575 345 327.295 350.2C326.255 354.28 325.575 357.16 325.255 358.84C324.935 360.52 324.775 361.92 324.775 363.04C324.775 364.72 325.175 366 325.975 366.88C326.775 367.68 327.975 368.08 329.575 368.08C331.575 368.08 333.295 367.4 334.735 366.04C336.175 364.68 337.815 361.84 339.655 357.52H344.695C342.135 364.96 339.015 370.52 335.335 374.2C331.735 377.88 327.415 379.72 322.375 379.72C317.895 379.72 314.415 378.52 311.935 376.12C309.455 373.64 308.215 370.32 308.215 366.16ZM368.801 366.16C368.801 364.72 368.961 362.92 369.281 360.76C369.681 358.6 370.441 355.16 371.561 350.44C372.681 345.88 373.401 342.6 373.721 340.6C374.041 338.6 374.201 336.92 374.201 335.56C374.201 333.56 373.841 332.04 373.121 331C372.401 329.96 371.321 329.44 369.881 329.44C367.961 329.44 366.161 330.44 364.481 332.44C362.881 334.36 361.561 337.04 360.521 340.48L352.361 379H335.081L347.801 319H365.081L363.761 325.24C365.761 323 367.921 321.32 370.241 320.2C372.561 319.08 375.081 318.52 377.801 318.52C382.041 318.52 385.321 319.68 387.641 322C389.961 324.32 391.121 327.68 391.121 332.08C391.121 333.92 390.881 336.12 390.401 338.68C390.001 341.16 389.161 345 387.881 350.2C386.841 354.28 386.161 357.16 385.841 358.84C385.521 360.52 385.361 361.92 385.361 363.04C385.361 364.72 385.761 366 386.561 366.88C387.361 367.68 388.561 368.08 390.161 368.08C392.161 368.08 393.881 367.4 395.321 366.04C396.761 364.68 398.401 361.84 400.241 357.52H405.281C402.721 364.96 399.601 370.52 395.921 374.2C392.321 377.88 388.001 379.72 382.961 379.72C378.481 379.72 375.001 378.52 372.521 376.12C370.041 373.64 368.801 370.32 368.801 366.16ZM420.267 368.08C422.267 368.08 424.067 367.24 425.667 365.56C427.267 363.88 428.587 361.44 429.627 358.24L438.027 319H455.307L443.427 374.68C447.427 373.24 450.547 371.24 452.787 368.68C455.107 366.04 457.027 362.32 458.547 357.52H463.587C461.747 363.6 459.107 368.48 455.667 372.16C452.307 375.84 447.867 378.44 442.347 379.96L440.547 388.6C439.107 395.32 436.587 400.4 432.987 403.84C429.387 407.28 424.707 409 418.947 409C414.867 409 411.587 407.96 409.107 405.88C406.707 403.8 405.507 400.96 405.507 397.36C405.507 393.44 407.107 389.96 410.307 386.92C413.587 383.96 418.507 381.48 425.067 379.48L426.507 373C424.507 375.24 422.307 376.92 419.907 378.04C417.587 379.16 414.987 379.72 412.107 379.72C408.107 379.72 404.947 378.48 402.627 376C400.387 373.44 399.267 369.88 399.267 365.32C399.267 364.28 399.347 363.12 399.507 361.84C399.667 360.48 399.907 359.04 400.227 357.52L408.387 319H425.667L417.027 359.8C416.947 360.28 416.867 360.8 416.787 361.36C416.707 361.84 416.667 362.32 416.667 362.8C416.667 364.48 416.947 365.8 417.507 366.76C418.147 367.64 419.067 368.08 420.267 368.08ZM423.867 385.48C419.867 387 416.907 388.56 414.987 390.16C413.067 391.84 412.107 393.68 412.107 395.68C412.107 396.72 412.507 397.64 413.307 398.44C414.107 399.24 415.067 399.64 416.187 399.64C417.547 399.64 418.867 398.68 420.147 396.76C421.427 394.84 422.427 392.24 423.147 388.96L423.867 385.48Z" fill="#2A2466"/>
</svg>
